# xmcd CD database file
# 
# Track frame offsets:
# 	150
# 	18528
# 	34411
# 	49693
# 	70343
# 	88593
# 	109282
# 	126850
# 	145457
# 	160191
# 	187292
# 
# Disc length: 2632 seconds
# 
# Submitted via: Nero 5.5.9.0
# 
# Revision: 0
# Processed by: cddbd v1.4PL0 Copyright (c) Steve Scherf et al.
#
DISCID=a50a460b
DTITLE=West 84 - Just For Fun
DYEAR=1900
DGENRE=
TTITLE0=Tired Of Being Alone
TTITLE1=Quarter In The Jukebox
TTITLE2=Just For Fun
TTITLE3=Who I Am
TTITLE4=Looking Back Now
TTITLE5=Beer Joints To The Opry
TTITLE6=Tonight
TTITLE7=Lick The Salt
TTITLE8=Before You Go
TTITLE9=Doug's Song
TTITLE10=Bonus
EXTD=
EXTT0=
EXTT1=
EXTT2=
EXTT3=
EXTT4=
EXTT5=
EXTT6=
EXTT7=
EXTT8=
EXTT9=
EXTT10=
PLAYORDER=
